<svg xmlns="http://www.w3.org/2000/svg" width="60" height="60" id="facebook"><path d="M37 11.9h6.5c.4 0 .8-.3.8-.8V1c0-.4-.3-.8-.8-.8h-8.9c-4.4 0-7.7 1.1-10 3.4-2.1 2.1-3.1 4.9-3.1 8.6v7.2h-5.1c-.4 0-.8.3-.8.8V30c0 .4.3.8.8.8h5.1V59c0 .4.3.8.8.8h12c.4 0 .8-.3.8-.8V30.7h7.3c.4 0 .7-.3.7-.6 0 0 .8-4.8 1.1-9.9 0-.2-.1-.4-.2-.6-.1-.2-.3-.2-.5-.2h-8.4v-5.9c0-.6 1-1.6 1.9-1.6zm-2.6 9h8.3c-.3 3.6-.8 7-1 8.3h-7.4c-.4 0-.8.3-.8.8v28.3H23.1V30c0-.4-.3-.8-.8-.8h-5.1V21h5.1c.4 0 .8-.3.8-.8v-8.1c0-3.2.9-5.6 2.6-7.4 2-2 5-3 8.9-3h8.2v8.7H37c-1.6 0-3.4 1.6-3.4 3.1v6.7c0 .4.4.7.8.7z"></path></svg>